<?xml version="1.0" encoding="utf-8"?>
<!-- Generator: Adobe Illustrator 25.2.1, SVG Export Plug-In . SVG Version: 6.00 Build 0)  -->
<svg version="1.1" id="Layer_1" xmlns="http://www.w3.org/2000/svg" xmlns:xlink="http://www.w3.org/1999/xlink" x="0px" y="0px"
	 viewBox="0 0 25 25" style="enable-background:new 0 0 25 25;" xml:space="preserve">
<style type="text/css">
	.st0{fill:#784FA0;}
</style>
<g>
	<path class="st0" d="M18.6,21.2c0.1,0.6,0.2,1,0.4,1.4c0.4,0.8,0.1,1.1-0.6,1.4c-0.6,0.2-1.3,0.5-1.9,0.8c-0.7,0.4-1.1,0.2-1.4-0.5
		c-0.6-1.5-1.7-2.1-3.2-1.8c-1,0.2-1.6,0.8-2,1.6c-0.5,1.3-0.5,1.1-1.6,0.6c-0.6-0.2-1.1-0.5-1.7-0.7c-0.8-0.2-0.9-0.6-0.6-1.3
		c0.6-1.4,0.3-2.6-0.8-3.4c-0.9-0.7-1.9-0.8-2.8-0.3c-0.7,0.4-1.1,0.3-1.4-0.6c-0.2-0.7-0.5-1.4-0.8-2c-0.3-0.7-0.2-1,0.5-1.2
		c1.1-0.4,1.9-1.2,1.9-2.4c0-1.4-0.4-2.2-1.8-2.8C0,9.6-0.2,9.2,0.2,8.5C0.5,7.8,0.8,7.2,1,6.5C1.3,5.8,1.6,5.7,2.3,6
		c1.4,0.6,2.4,0.4,3.3-0.6c0.8-0.9,0.9-1.9,0.4-3C5.7,1.7,5.8,1.2,6.6,1c0.7-0.2,1.4-0.5,2-0.8c0.7-0.3,1-0.2,1.2,0.5
		c0.4,1.1,1.2,1.8,2.4,1.9c1.4,0.1,2.2-0.5,2.8-1.9c0.3-0.7,0.6-0.9,1.3-0.5c0.7,0.3,1.4,0.6,2.1,0.9c0.7,0.2,0.7,0.6,0.5,1.2
		c-0.5,1-0.5,2.1,0.3,3c0.9,1.1,2,1.4,3.4,0.8c0.8-0.3,1.1-0.2,1.4,0.6c0.2,0.7,0.5,1.4,0.8,2c0.3,0.7,0.2,1-0.5,1.2
		c-1.1,0.4-1.9,1.2-1.9,2.4c0,1.5,0.5,2.3,1.9,2.8c0.7,0.3,0.9,0.6,0.5,1.3c-0.3,0.6-0.6,1.2-0.8,1.9c-0.3,0.9-0.7,1-1.6,0.6
		c-1.3-0.6-2.5-0.2-3.2,0.9C18.9,20.2,18.8,20.8,18.6,21.2z M12.4,18.6c3.5,0,6.4-2.7,6.4-6.1c0-3.3-2.8-6.3-6.1-6.3
		c-3.5,0-6.5,2.9-6.4,6.2C6.3,15.9,9,18.6,12.4,18.6z"/>
</g>
</svg>
