<?xml version="1.0" encoding="utf-8"?>
<!-- Generator: Adobe Illustrator 25.2.1, SVG Export Plug-In . SVG Version: 6.00 Build 0)  -->
<svg version="1.1" id="Layer_1" xmlns="http://www.w3.org/2000/svg" xmlns:xlink="http://www.w3.org/1999/xlink" x="0px" y="0px"
	 viewBox="0 0 39.4 65.5" style="enable-background:new 0 0 39.4 65.5;" xml:space="preserve">
<style type="text/css">
	.st0{fill:#282828;}
</style>
<path class="st0" d="M5.6,65l-5-5.1c-0.6-0.6-0.6-1.5-0.1-2c0,0,0,0,0.1-0.1l25.1-25.1L0.5,7.6c-0.6-0.6-0.6-1.5,0-2.1c0,0,0,0,0,0
	l5.1-5.1c0.6-0.6,1.5-0.6,2,0c0,0,0,0,0,0L39,31.6c0.6,0.6,0.6,1.5,0,2c0,0,0,0,0,0L7.7,65C7.1,65.6,6.2,65.7,5.6,65
	C5.6,65.1,5.6,65.1,5.6,65z"/>
</svg>
